# Blender v2.77 (sub 0) OBJ File: 'qubodup-standing-bookcase-CC0.blend'
# www.blender.org
mtllib qubodup-standing-bookcase-CC0.mtl
o Cube
v -0.200000 0.240000 0.200000
v -0.200000 0.240000 -0.200000
v 0.200000 0.240000 -0.200000
v 0.200000 0.240000 0.200000
v -0.200000 1.459972 0.200000
v -0.200000 1.459972 -0.200000
v 0.200000 1.459972 -0.200000
v 0.200000 1.459972 0.200000
v 0.180000 -0.000000 0.180000
v 0.180000 -0.000000 -0.180000
v -0.180000 -0.000000 -0.180000
v -0.180000 -0.000000 0.180000
v -0.180000 0.220000 0.180000
v -0.180000 0.220000 -0.180000
v 0.180000 0.220000 -0.180000
v 0.180000 0.220000 0.180000
v -0.180000 1.599972 0.180000
v -0.180000 1.599972 -0.180000
v 0.180000 1.599972 -0.180000
v 0.180000 1.599972 0.180000
v 0.180000 1.479972 0.180000
v 0.180000 1.479972 -0.180000
v -0.180000 1.479972 -0.180000
v -0.180000 1.479972 0.180000
v -0.100000 1.519971 -0.180000
v 0.000000 1.499972 -0.180000
v 0.100000 1.519971 -0.180000
v 0.100000 0.160000 -0.180000
v 0.000000 0.200000 -0.180000
v -0.100000 0.160000 -0.180000
v 0.180000 1.439971 -0.200000
v -0.180000 1.439971 -0.200000
v 0.180000 0.260000 -0.200000
v -0.180000 0.260000 -0.200000
v -0.180000 0.260000 0.180000
v 0.180000 0.260000 0.180000
v -0.180000 1.439971 0.180000
v 0.180000 1.439971 0.180000
v 0.180000 0.640000 0.180000
v 0.180000 1.060000 0.180000
v -0.180000 0.640000 0.180000
v -0.180000 1.060000 0.180000
v -0.180000 1.060000 -0.200000
v -0.180000 0.640000 -0.200000
v 0.180000 1.060000 -0.200000
v 0.180000 0.640000 -0.200000
v -0.180000 1.040000 -0.200000
v -0.180000 0.660000 -0.200000
v 0.180000 1.040000 -0.200000
v 0.180000 0.660000 -0.200000
v 0.180000 0.660000 0.180000
v 0.180000 1.040000 0.180000
v -0.180000 0.660000 0.180000
v -0.180000 1.040000 0.180000
v 0.220000 0.220000 0.200000
v 0.220000 0.220000 -0.200000
v 0.220000 -0.000000 0.200000
v 0.220000 -0.000000 -0.200000
v -0.220000 0.220000 -0.200000
v -0.220000 0.220000 0.200000
v -0.220000 -0.000000 -0.200000
v -0.220000 -0.000000 0.200000
v 0.180000 -0.000000 -0.220000
v -0.180000 -0.000000 -0.220000
v 0.100000 0.160000 -0.220000
v -0.000000 0.200000 -0.220000
v -0.100000 0.160000 -0.220000
v 0.200000 0.220000 -0.220000
v -0.200000 0.220000 -0.220000
v 0.200000 -0.000000 -0.220000
v -0.200000 -0.000000 -0.220000
v 0.200000 0.220000 0.220000
v -0.200000 0.220000 0.220000
v 0.200000 0.000000 0.220000
v -0.200000 0.000000 0.220000
v -0.200000 1.599972 0.220000
v 0.200000 1.599972 0.220000
v 0.200000 1.479972 0.220000
v -0.200000 1.479972 0.220000
v 0.180000 1.599972 -0.220000
v -0.180000 1.599972 -0.220000
v -0.100000 1.519971 -0.220000
v 0.000000 1.499972 -0.220000
v 0.100000 1.519971 -0.220000
v -0.200000 1.599972 -0.220000
v 0.200000 1.599972 -0.220000
v 0.200000 1.479972 -0.220000
v -0.200000 1.479972 -0.220000
v -0.220000 1.599972 0.200000
v -0.220000 1.599972 -0.200000
v -0.220000 1.479972 -0.200000
v -0.220000 1.479972 0.200000
v 0.220000 1.599972 -0.200000
v 0.220000 1.599972 0.200000
v 0.220000 1.479972 0.200000
v 0.220000 1.479972 -0.200000
vt 0.9783 0.9961
vt 0.0000 0.9961
vt 0.0000 0.0000
vt 0.9783 0.0000
vt 0.0000 0.0000
vt 0.9783 0.0000
vt 0.9783 0.9961
vt 0.0000 0.9961
vt 0.9783 0.9961
vt 0.0000 0.9961
vt 0.0000 0.0000
vt 0.9783 0.0000
vt 0.0000 0.3516
vt 0.0000 0.0000
vt 0.7617 0.0000
vt 0.7617 0.3516
vt 0.0000 0.3516
vt 0.0000 0.0000
vt 0.7617 0.0000
vt 0.7617 0.3516
vt 0.0000 0.3516
vt 0.0000 0.0000
vt 0.7617 0.0000
vt 0.7617 0.3516
vt 0.9783 0.0000
vt 0.0000 0.0000
vt 0.0000 0.3516
vt 0.9783 0.3516
vt 0.0000 0.3516
vt 0.0000 0.0000
vt 0.7617 0.0000
vt 0.7617 0.3516
vt 0.0000 0.3516
vt 0.0000 0.0000
vt 0.7617 0.0000
vt 0.7617 0.3516
vt 0.0000 0.3516
vt 0.0000 0.0000
vt 0.7617 0.0000
vt 0.7617 0.3516
vt 0.9783 0.0000
vt 0.9783 0.3516
vt 0.0000 0.3516
vt 0.0000 0.0000
vt 0.0852 0.1258
vt 0.0050 0.0008
vt 0.0050 0.2508
vt 0.4862 0.2508
vt 0.1654 0.2065
vt 0.1654 0.0451
vt 0.4862 0.0008
vt 0.0852 0.1258
vt 0.0050 0.0008
vt 0.0050 0.2508
vt 0.4862 0.2508
vt 0.2456 0.2065
vt 0.2456 0.0451
vt 0.4862 0.0008
vt 0.9094 0.3665
vt 0.9094 0.0072
vt 0.9550 0.0251
vt 0.9550 0.3486
vt 0.9553 0.0072
vt 0.9553 0.3665
vt 0.9097 0.3486
vt 0.9097 0.0251
vt 0.0000 0.3516
vt 0.0000 0.0000
vt 0.9783 0.0000
vt 0.9783 0.3516
vt 0.0000 0.3516
vt 0.0000 0.0000
vt 0.9783 0.0000
vt 0.9783 0.3516
vt 0.8330 0.9509
vt 0.8330 0.6660
vt 0.8747 0.9659
vt 0.8330 0.3511
vt 0.8330 0.0662
vt 0.8747 0.0513
vt 0.0811 0.0662
vt 0.0811 0.3511
vt 0.0394 0.0513
vt 0.0811 0.6660
vt 0.0811 0.9509
vt 0.0394 0.9659
vt 0.9783 0.3516
vt 0.0000 0.3516
vt 0.0000 0.0000
vt 0.9783 0.0000
vt 0.0000 0.0000
vt 0.0000 0.3516
vt 0.9783 0.3516
vt 0.9783 0.0000
vt 0.8330 0.6510
vt 0.8330 0.3661
vt 0.0811 0.3661
vt 0.0811 0.6510
vt 0.0000 0.0000
vt 0.0000 0.3516
vt 0.9783 0.3516
vt 0.9783 0.0000
vt 0.9783 0.0000
vt 0.9783 0.3516
vt 0.0000 0.3516
vt 0.0000 0.0000
vt 0.0000 0.9961
vt 0.0000 0.6641
vt 0.9250 0.6641
vt 0.9250 0.9961
vt 0.9250 0.6641
vt 0.9250 0.9961
vt 0.0000 0.9961
vt 0.0000 0.6641
vt 0.0000 0.6641
vt 0.0000 0.3320
vt 0.9250 0.3320
vt 0.9250 0.6641
vt 0.9523 0.3486
vt 0.9067 0.3486
vt 0.9067 0.0251
vt 0.9523 0.0251
vt 0.9250 0.3320
vt 0.9250 0.6641
vt 0.0000 0.6641
vt 0.0000 0.3320
vt 0.0000 0.6641
vt 0.9250 0.6641
vt 0.9250 0.9961
vt 0.0000 0.9961
vt 0.9250 0.6641
vt 0.9250 0.9961
vt 0.0000 0.9961
vt 0.0000 0.6641
vt 0.9250 0.9961
vt 0.0000 0.9961
vt 0.0000 0.6641
vt 0.9250 0.6641
vt 0.9250 0.6641
vt 0.0000 0.6641
vt 0.0000 0.3320
vt 0.9250 0.3320
vt 0.0000 0.9961
vt 0.0000 0.6641
vt 0.9250 0.6641
vt 0.9250 0.9961
vt 0.9080 0.3486
vt 0.9080 0.0251
vt 0.9536 0.0251
vt 0.9536 0.3486
vt 0.0101 0.3176
vt 0.0101 0.0026
vt 0.0450 0.0026
vt 0.0450 0.3176
vt 0.4280 0.3176
vt 0.4280 0.0026
vt 0.0101 0.3176
vt 0.0101 0.0026
vt 0.0450 0.0026
vt 0.0450 0.3176
vt 0.4280 0.3176
vt 0.4280 0.0026
vt 0.0101 0.3176
vt 0.0101 0.0026
vt 0.0450 0.0026
vt 0.0450 0.3176
vt 0.0798 0.1601
vt 0.1494 0.0813
vt 0.1494 0.2388
vt 0.4280 0.3018
vt 0.4280 0.3176
vt 0.4280 0.0026
vt 0.4280 0.0183
vt 0.0101 0.3176
vt 0.0101 0.0026
vt 0.0450 0.0026
vt 0.0450 0.3176
vt 0.4280 0.0026
vt 0.4280 0.3176
vt 0.3235 0.0026
vt 0.3235 0.3176
vt 0.2887 0.3176
vt 0.2887 0.0026
vt 0.0798 0.3176
vt 0.0798 0.0026
vt 0.3235 0.0026
vt 0.3235 0.3176
vt 0.2887 0.3176
vt 0.2887 0.0026
vt 0.2539 0.1601
vt 0.2191 0.2388
vt 0.2191 0.0813
vt 0.0798 0.3176
vt 0.0798 0.3018
vt 0.0798 0.0183
vt 0.0798 0.0026
vt 0.3235 0.0026
vt 0.3235 0.3176
vt 0.2887 0.3176
vt 0.2887 0.0026
vt 0.0798 0.3176
vt 0.0798 0.0026
vt 0.3235 0.0026
vt 0.3235 0.3176
vt 0.2887 0.3176
vt 0.2887 0.0026
vt 0.0798 0.3176
vt 0.0798 0.0026
vt 0.2887 0.3333
vt 0.2887 0.3333
vt 0.0798 0.3333
vt 0.0798 0.3333
vt 0.2887 0.3333
vt 0.0798 0.3333
vt 0.4280 0.3333
vt 0.0450 0.3333
vt 0.0450 0.3333
vt 0.4280 0.3333
vt 0.0450 0.3333
vt 0.4280 0.3333
vt 0.4280 0.3333
vt 0.0450 0.3333
vt 0.0000 0.0000
vt 0.9783 0.0000
vt 0.0000 0.0000
vt 0.9783 0.0000
vt 0.0000 0.0000
vt 0.9783 0.0000
vt 0.9783 0.3516
vt 0.0000 0.3516
vt 0.9783 0.3516
vt 0.0000 0.0000
vt 0.9783 0.0000
vt 0.9783 0.3516
vt 0.0000 0.0000
vt 0.9783 0.0000
vt 0.9783 0.3516
vt 0.0000 0.0000
vt 0.9783 0.0000
vt 0.9783 0.3516
vt 0.0000 0.0000
vt 0.9783 0.0000
vt 0.9783 0.3516
vt 0.0000 0.3516
vt 0.0000 0.0000
vt 0.9783 0.0000
vt 0.9783 0.3516
vt 0.0000 0.3516
vt 0.0000 0.0000
vt 0.9783 0.0000
vt 0.9783 0.3516
vt 0.0000 0.0000
vt 0.9783 0.3516
vt 0.2887 0.3333
vt 0.0798 0.3333
vt 0.0000 0.0000
vt 0.9783 0.0000
vt 0.0000 0.0000
vt 0.9783 0.0000
vt 0.9783 0.3516
vt 0.0000 0.0000
vt 0.9783 0.0000
vt 0.0000 0.3516
vt 0.9783 0.3516
vt 0.0000 0.0000
vt 0.9783 0.0000
vt 0.9783 0.3516
vt 0.0000 0.0000
vt 0.9783 0.0000
vt 0.9783 0.3516
vt 0.0000 0.0000
vt 0.9783 0.0000
vt 0.9783 0.3516
vt 0.0000 0.0000
vt 0.9783 0.0000
vt 0.9783 0.3516
vt 0.0000 0.3516
vt 0.0000 0.0000
vt 0.9783 0.3516
vt 0.0000 0.3516
vt 0.0000 0.0000
vt 0.9783 0.0000
vt 0.9783 0.3516
vt 0.0000 0.0000
vt 0.9783 0.0000
vt 0.9783 0.3516
vn -1.0000 -0.0000 -0.0000
vn -0.0000 -0.0000 1.0000
vn 1.0000 0.0000 0.0000
vn 0.0000 0.0000 -1.0000
vn 0.0000 -1.0000 0.0000
vn 0.0000 1.0000 0.0000
vn 0.7071 0.7071 0.0000
vn -0.7071 0.7071 -0.0000
vn 0.0000 0.7071 -0.7071
vn -0.0000 0.7071 0.7071
vn -0.0000 -0.7071 0.7071
vn 0.0000 -0.7071 -0.7071
vn -0.7071 -0.7071 -0.0000
vn 0.7071 -0.7071 0.0000
vn 0.5774 -0.5774 -0.5773
vn -0.5774 -0.5774 -0.5773
vn -0.7071 0.0000 -0.7071
vn 0.7071 0.0000 -0.7071
vn 0.7071 0.0000 0.7071
vn -0.7071 -0.0000 0.7071
vn -0.8944 -0.4472 -0.0000
vn -0.3714 -0.9285 0.0000
vn 0.3714 -0.9285 0.0000
vn 0.8944 -0.4472 0.0000
vn 0.5774 0.5774 -0.5774
vn 0.5774 0.5774 0.5773
vn -0.5774 0.5774 -0.5773
vn -0.5773 0.5774 0.5774
vn 0.5773 -0.5774 0.5773
vn -0.5774 -0.5774 0.5773
vn -0.1961 0.9806 -0.0000
vn 0.1961 0.9806 0.0000
usemtl Material
s off
f 2/1/1 1/2/1 5/3/1 6/4/1
f 1/5/2 4/6/2 8/7/2 5/8/2
f 4/9/3 3/10/3 7/11/3 8/12/3
f 12/13/3 11/14/3 14/15/3 13/16/3
f 9/17/4 12/18/4 13/19/4 16/20/4
f 10/21/1 9/22/1 16/23/1 15/24/1
f 13/25/5 14/26/5 15/27/5 16/28/5
f 20/29/1 19/30/1 22/31/1 21/32/1
f 17/33/4 20/34/4 21/35/4 24/36/4
f 18/37/3 17/38/3 24/39/3 23/40/3
f 24/41/6 21/42/6 22/43/6 23/44/6
f 26/45/2 23/46/2 22/47/2
f 19/48/2 27/49/2 22/47/2
f 25/50/2 18/51/2 23/46/2
f 27/49/2 26/45/2 22/47/2
f 26/45/2 25/50/2 23/46/2
f 29/52/2 15/53/2 14/54/2
f 11/55/2 30/56/2 14/54/2
f 28/57/2 10/58/2 15/53/2
f 30/56/2 29/52/2 14/54/2
f 29/52/2 28/57/2 15/53/2
f 6/59/4 7/60/4 31/61/4 32/62/4
f 3/63/4 2/64/4 34/65/4 33/66/4
f 33/67/6 34/68/6 35/69/6 36/70/6
f 32/71/5 31/72/5 38/73/5 37/74/5
f 32/75/4 43/76/4 6/77/4
f 44/78/4 34/79/4 2/80/4
f 33/81/4 46/82/4 3/83/4
f 45/84/4 31/85/4 7/86/4
f 40/87/6 45/88/6 43/89/6 42/90/6
f 39/91/5 41/92/5 44/93/5 46/94/5
f 47/95/4 48/96/4 2/80/4 6/77/4
f 43/76/4 47/95/4 6/77/4
f 48/96/4 44/78/4 2/80/4
f 50/97/4 49/98/4 7/86/4 3/83/4
f 46/82/4 50/97/4 3/83/4
f 49/98/4 45/84/4 7/86/4
f 47/99/5 49/100/5 52/101/5 54/102/5
f 50/103/6 48/104/6 53/105/6 51/106/6
f 49/107/1 50/108/1 51/109/1 52/110/1
f 48/111/3 47/112/3 54/113/3 53/114/3
f 52/115/4 51/116/4 53/117/4 54/118/4
f 44/119/4 48/120/4 50/121/4 46/122/4
f 35/123/4 41/124/4 39/125/4 36/126/4
f 33/127/1 36/128/1 39/129/1 46/130/1
f 34/131/3 44/132/3 41/133/3 35/134/3
f 32/135/3 37/136/3 42/137/3 43/138/3
f 37/139/4 38/140/4 40/141/4 42/142/4
f 31/143/1 45/144/1 40/145/1 38/146/1
f 43/147/4 45/148/4 49/149/4 47/150/4
f 3/151/7 4/152/7 55/153/7 56/154/7
f 58/155/3 56/154/3 55/153/3 57/156/3
f 1/157/8 2/158/8 59/159/8 60/160/8
f 62/161/1 60/160/1 59/159/1 61/162/1
f 2/163/9 3/164/9 68/165/9 69/166/9
f 66/167/4 69/166/4 68/165/4
f 65/168/4 66/167/4 68/165/4
f 66/167/4 67/169/4 69/166/4
f 69/166/4 67/169/4 64/170/4 71/171/4
f 70/172/4 63/173/4 65/168/4 68/165/4
f 4/174/10 1/175/10 73/176/10 72/177/10
f 73/176/2 75/178/2 74/179/2 72/177/2
f 5/180/11 8/181/11 78/182/11 79/183/11
f 79/183/2 78/182/2 77/184/2 76/185/2
f 7/186/12 6/187/12 88/188/12 87/189/12
f 83/190/4 87/189/4 88/188/4
f 82/191/4 83/190/4 88/188/4
f 83/190/4 84/192/4 87/189/4
f 88/188/4 85/193/4 81/194/4 82/191/4
f 87/189/4 84/192/4 80/195/4 86/196/4
f 6/197/13 5/198/13 92/199/13 91/200/13
f 91/200/1 92/199/1 89/201/1 90/202/1
f 8/203/14 7/204/14 96/205/14 95/206/14
f 95/206/3 96/205/3 93/207/3 94/208/3
f 7/204/15 87/209/15 96/205/15
f 6/187/16 91/210/16 88/188/16
f 85/193/17 88/188/17 91/210/17 90/211/17
f 86/212/18 93/207/18 96/205/18 87/209/18
f 77/184/19 78/182/19 95/213/19 94/214/19
f 56/154/18 58/155/18 70/215/18 68/216/18
f 55/217/19 72/177/19 74/179/19 57/218/19
f 59/219/17 69/166/17 71/171/17 61/220/17
f 60/160/20 62/161/20 75/221/20 73/222/20
f 9/17/5 57/223/5 74/224/5
f 12/13/5 75/225/5 62/226/5
f 9/17/5 74/227/5 75/228/5 12/229/5
f 11/230/5 12/18/5 62/226/5 61/231/5
f 11/230/5 61/232/5 71/233/5 64/234/5
f 10/21/5 63/235/5 70/236/5 58/237/5
f 9/17/5 10/238/5 58/239/5 57/240/5
f 10/21/21 28/241/21 65/242/21 63/243/21
f 28/244/22 29/245/22 66/246/22 65/247/22
f 29/248/23 30/249/23 67/250/23 66/251/23
f 11/230/24 64/252/24 67/250/24 30/253/24
f 3/151/25 56/154/25 68/216/25
f 4/174/26 72/177/26 55/217/26
f 2/163/27 69/166/27 59/219/27
f 1/157/28 60/160/28 73/222/28
f 8/181/29 95/213/29 78/182/29
f 5/198/30 79/254/30 92/199/30
f 76/255/20 89/201/20 92/199/20 79/254/20
f 17/33/6 89/256/6 76/257/6
f 17/33/6 76/258/6 77/259/6 20/260/6
f 20/29/6 77/261/6 94/262/6
f 19/263/6 20/34/6 94/262/6 93/264/6
f 19/263/6 93/265/6 86/266/6 80/267/6
f 17/33/6 18/268/6 90/269/6 89/270/6
f 18/37/6 81/271/6 85/272/6 90/273/6
f 19/263/8 80/274/8 84/275/8 27/276/8
f 26/277/31 27/278/31 84/275/31 83/279/31
f 25/280/32 26/281/32 83/282/32 82/283/32
f 18/37/7 25/284/7 82/285/7 81/286/7
