# Blender v2.77 (sub 0) OBJ File: 'side-shelf.blend'
# www.blender.org
mtllib wall-shelf.mtl
o Cube.001
v -0.499328 -0.000959 -0.000977
v -0.499328 0.249041 -0.000977
v -0.499328 -0.000959 -0.020977
v -0.499328 0.249041 -0.020977
v 0.500672 -0.000959 -0.000977
v 0.500672 0.249041 -0.000977
v 0.500672 -0.000959 -0.020977
v 0.500672 0.249041 -0.020977
vt 0.3333 0.3333
vt 0.3333 0.0000
vt 0.6667 0.0000
vt 0.6667 0.3333
vt 0.0000 0.6667
vt 0.0000 0.3333
vt 0.3333 0.3333
vt 0.3333 0.6667
vt 0.0000 0.0000
vt 0.3333 0.0000
vt 0.3333 0.3333
vt 0.6667 0.3333
vt 0.6667 0.6667
vt 0.3333 0.6667
vt 1.0000 0.0000
vt 1.0000 0.3333
vt 0.6667 0.3333
vt 0.6667 0.0000
vt 0.0000 0.6667
vt 0.3333 0.6667
vt 0.3333 1.0000
vt 0.0000 1.0000
vn -1.0000 0.0000 0.0000
vn 0.0000 0.0000 -1.0000
vn 1.0000 0.0000 0.0000
vn 0.0000 0.0000 1.0000
vn 0.0000 -1.0000 0.0000
vn 0.0000 1.0000 0.0000
usemtl None
s off
f 2/1/1 4/2/1 3/3/1 1/4/1
f 4/5/2 8/6/2 7/7/2 3/8/2
f 8/6/3 6/9/3 5/10/3 7/7/3
f 6/11/4 2/12/4 1/13/4 5/14/4
f 1/15/5 3/16/5 7/17/5 5/18/5
f 6/19/6 8/20/6 4/21/6 2/22/6
o Cube
v 0.500672 -0.000959 -0.215977
v 0.500672 -0.000959 -0.015977
v -0.499328 -0.000959 -0.015977
v -0.499328 -0.000959 -0.215977
v 0.500672 0.049041 -0.215977
v 0.500672 0.049041 -0.015977
v -0.499328 0.049041 -0.015977
v -0.499328 0.049041 -0.215977
vt 0.0000 0.6667
vt 0.3333 0.6667
vt 0.3333 1.0000
vt 0.0000 1.0000
vt 0.3333 0.3333
vt 0.3333 0.6667
vt 0.0000 0.6667
vt 0.0000 0.3333
vt 0.6667 0.3333
vt 0.3333 0.0000
vt 0.6667 0.0000
vt 0.0000 0.3333
vt 0.0000 0.0000
vt 0.3333 0.0000
vt 0.3333 0.3333
vt 1.0000 0.3333
vt 0.6667 0.3333
vt 0.6667 0.0000
vt 1.0000 0.0000
vt 0.6667 0.6667
vn 0.0000 -1.0000 0.0000
vn 0.0000 1.0000 0.0000
vn 1.0000 0.0000 0.0000
vn -0.0000 -0.0000 1.0000
vn -1.0000 -0.0000 -0.0000
vn 0.0000 0.0000 -1.0000
usemtl Material
s off
f 9/23/7 10/24/7 11/25/7 12/26/7
f 13/27/8 16/28/8 15/29/8 14/30/8
f 9/31/9 13/27/9 14/32/9 10/33/9
f 10/34/10 14/35/10 15/36/10 11/37/10
f 11/38/11 15/39/11 16/40/11 12/41/11
f 13/27/12 9/31/12 12/42/12 16/28/12
