# Blender v2.77 (sub 0) OBJ File: 'door-and-window.blend'
# www.blender.org
mtllib window-150_Kalyoncu-Seppannen.mtl
o Window_1_Plane.005
v 0.794610 0.093377 -0.035132
v -0.795033 0.093377 -0.035132
v 0.794610 1.353214 -0.035132
v -0.795033 1.353214 -0.035132
v 0.755488 0.117794 0.080861
v 0.746814 0.123208 0.073440
v -0.755911 0.117794 0.080861
v -0.747237 0.123208 0.073440
v 0.746814 1.229682 0.073440
v 0.754977 1.239386 0.080861
v -0.747237 1.229682 0.073440
v -0.755400 1.239386 0.080861
v -0.913243 0.069402 0.071096
v -0.863441 0.019600 0.071096
v -0.901829 0.026723 0.080861
v 0.863018 0.019600 0.071096
v 0.912820 0.069402 0.071096
v 0.898738 0.028389 0.080861
v -0.913243 1.377189 0.071096
v -0.902501 1.414224 0.080861
v -0.863642 1.431456 0.071096
v 0.863219 1.431456 0.071096
v 0.903526 1.415945 0.080861
v 0.912820 1.377189 0.071096
v 0.746814 0.123208 -0.124061
v 0.755488 0.117794 -0.131483
v -0.747237 0.123208 -0.124061
v -0.755911 0.117794 -0.131483
v 0.754977 1.239386 -0.131483
v 0.746814 1.229682 -0.124061
v -0.755400 1.239386 -0.131483
v -0.747237 1.229682 -0.124061
v -0.913243 0.069402 -0.121718
v -0.901829 0.026723 -0.131483
v -0.863441 0.019600 -0.121718
v 0.863018 0.019600 -0.121718
v 0.898738 0.028389 -0.131483
v 0.912820 0.069402 -0.121718
v -0.913243 1.377189 -0.121718
v -0.863642 1.431456 -0.121718
v -0.902501 1.414224 -0.131483
v 0.863219 1.431456 -0.121718
v 0.912820 1.377189 -0.121718
v 0.903526 1.415945 -0.131483
v -0.050013 1.229682 0.073440
v -0.042592 1.237846 0.080861
v 0.042169 1.237846 0.080861
v 0.049590 1.229682 0.073440
v -0.099614 1.500231 0.071096
v -0.050013 1.493911 0.080861
v -0.000211 1.504696 0.071096
v 0.099191 1.500231 0.071096
v -0.000211 1.504696 0.071096
v 0.049590 1.493954 0.080861
v -0.042592 1.237846 -0.131483
v -0.050013 1.229682 -0.124061
v 0.049590 1.229682 -0.124061
v 0.042169 1.237846 -0.131483
v -0.099614 1.500231 -0.121718
v -0.000211 1.504696 -0.121718
v -0.050013 1.493911 -0.131483
v 0.099191 1.500231 -0.121718
v 0.049590 1.493954 -0.131483
v -0.000211 1.504696 -0.121718
v -0.042592 0.116529 0.080861
v -0.050013 0.123208 0.073440
v 0.049590 0.123208 0.073440
v 0.042169 0.116529 0.080861
v -0.050013 0.019600 0.071096
v -0.050013 0.028389 0.080861
v 0.049590 0.028389 0.080861
v 0.049590 0.019600 0.071096
v -0.050013 0.123208 -0.124061
v -0.042592 0.116529 -0.131483
v 0.042169 0.116529 -0.131483
v 0.049590 0.123208 -0.124061
v -0.050013 0.028389 -0.131483
v -0.050013 0.019600 -0.121718
v 0.049590 0.019600 -0.121718
v 0.049590 0.028389 -0.131483
vt 0.6042 1.6319
vt 1.5770 1.6289
vt 1.5776 1.8025
vt 0.6047 1.8055
vt 1.8313 1.2529
vt 1.2183 1.2548
vt 1.2178 1.0812
vt 1.8308 1.0793
vt 1.2177 1.6140
vt 0.6047 1.6158
vt 0.6042 1.4422
vt 1.2172 1.4403
vt -0.2394 0.7812
vt -0.8666 0.7842
vt -0.9952 0.7045
vt -0.2462 0.7037
vt -0.2423 0.6839
vt -0.9933 0.6176
vt -0.8632 0.4620
vt -0.2364 0.4587
vt 0.5947 0.6113
vt -0.1547 0.6836
vt -0.1619 0.4585
vt 0.4648 0.4579
vt -0.9928 -0.6024
vt -0.2462 -0.6047
vt -0.2394 -0.5272
vt -0.8666 -0.5242
vt -0.1586 -0.6049
vt 0.5903 -0.6087
vt 0.4623 -0.5282
vt -0.1649 -0.5274
vt -0.9611 -0.7979
vt -0.2893 -0.7958
vt -0.2898 -0.6263
vt -0.9616 -0.6284
vt -0.8632 1.7704
vt -0.9920 1.9245
vt 0.6047 1.2548
vt 1.2177 1.2529
vt 1.2172 1.0793
vt 0.6042 1.0812
vt 0.4648 1.7663
vt 0.4623 0.7801
vt 0.5880 0.7011
vt 0.5959 1.9211
vt -0.9609 -0.9895
vt -0.2457 -0.9873
vt -0.2462 -0.8178
vt -0.9614 -0.8200
vt -0.1581 -0.9871
vt 0.5571 -0.9849
vt 0.5566 -0.8153
vt -0.1586 -0.8175
vt -0.2364 1.7671
vt -0.2423 1.9923
vt 1.7951 -0.6272
vt 0.6452 -0.6237
vt 0.6447 -0.7932
vt 1.7946 -0.7968
vt 1.5770 1.9952
vt 0.6042 1.9922
vt 0.6047 1.8186
vt 1.5776 1.8216
vt -0.1619 1.7669
vt -0.1547 1.9920
vt -0.1649 0.7809
vt -0.1586 0.7034
vt -0.1145 -0.7953
vt 0.5573 -0.7932
vt 0.5568 -0.6237
vt -0.1150 -0.6258
vt 0.6047 0.8896
vt 1.5776 0.8926
vt 1.5770 1.0662
vt 0.6042 1.0632
vt 1.2183 1.4403
vt 1.8313 1.4422
vt 1.8308 1.6158
vt 1.2178 1.6140
vt 0.6480 -0.6027
vt 1.7978 -0.6063
vt 1.7983 -0.4367
vt 0.6485 -0.4332
vt 0.6042 0.7029
vt 1.5770 0.6999
vt 1.5776 0.8736
vt 0.6047 0.8765
vt -0.2019 -0.7956
vt -0.2019 -0.7956
vt -0.2024 -0.6260
vt -0.2024 -0.6260
vt 1.8389 -0.6274
vt 1.8327 -0.6188
vt -1.0047 -0.9897
vt -0.9923 -0.9982
vt 0.6127 -0.6150
vt 0.6015 -0.6236
vt 0.5937 -0.8017
vt 0.6009 -0.7931
vt 1.8321 -0.8055
vt 1.8384 -0.7969
vt -0.9928 -0.8115
vt -1.0052 -0.8201
vt 0.6009 -0.7931
vt 0.6121 -0.8017
vt 0.6004 -0.6236
vt 0.5931 -0.6150
vt -0.2465 -0.8043
vt -0.2457 -0.7957
vt -0.1581 -0.7954
vt -0.1572 -0.8040
vt -0.2462 -0.6262
vt -0.2471 -0.6176
vt -0.1578 -0.6173
vt -0.1586 -0.6259
vt 0.4547 0.7849
vt -0.1584 0.7868
vt 1.2183 1.4338
vt 1.8314 1.4357
vt 0.4576 1.7578
vt 0.6041 1.6254
vt 1.5770 1.6224
vt -0.2457 -0.9959
vt 0.5605 1.9349
vt -0.1111 1.9974
vt 0.6138 -0.6112
vt 1.8339 -0.6150
vt -1.0016 1.8920
vt -1.0051 0.7421
vt 0.6041 1.4357
vt 1.2172 1.4338
vt -0.8560 0.4534
vt -0.2430 0.4516
vt 1.5770 1.0728
vt 0.6041 1.0698
vt 0.4576 0.4494
vt 0.4547 -0.5235
vt -0.9614 -0.6102
vt -0.2462 -0.6124
vt -1.0016 0.5836
vt -1.0051 -0.5663
vt -1.0052 -0.6285
vt -1.0047 -0.7980
vt 0.6047 -0.4331
vt 0.6042 -0.6026
vt -0.8560 1.7618
vt -0.2430 1.7599
vt -0.9963 -0.8066
vt -0.2457 -0.8043
vt -0.1581 -0.8040
vt 1.2177 1.0746
vt 1.8308 1.0728
vt 0.5605 0.6265
vt -0.1111 0.6890
vt -0.1984 0.6932
vt -0.1984 0.6932
vt 0.6047 1.2613
vt 1.2177 1.2595
vt -0.9614 0.6982
vt -0.2462 0.6960
vt -0.1587 0.6957
vt -0.1584 -0.5216
vt 0.5903 -0.8067
vt -0.1587 -0.8090
vt -0.2462 -0.8092
vt 0.6047 1.8121
vt 1.5776 1.8150
vt 0.6041 0.6964
vt 1.5770 0.6934
vt -0.1554 0.4513
vt 1.5776 0.8801
vt 0.6047 0.8831
vt 0.6075 0.6934
vt 0.6041 -0.4143
vt 2.0018 -0.4186
vt 2.0052 0.6891
vn 1.0000 0.0000 0.0000
vn 0.0000 -1.0000 0.0000
vn 0.0000 1.0000 0.0000
vn -0.0000 0.0000 1.0000
vn -0.0000 0.0000 -1.0000
vn -0.0897 0.9960 0.0000
vn -1.0000 0.0000 0.0000
vn 0.0897 0.9960 0.0000
vn -0.2857 -0.2857 -0.9147
vn 0.3226 -0.3226 -0.8898
vn -0.3667 0.3352 -0.8679
vn 0.3334 0.3048 -0.8922
vn -0.2857 -0.2857 0.9147
vn 0.3226 -0.3226 0.8898
vn -0.3667 0.3352 0.8679
vn 0.3334 0.3048 0.8922
vn -0.0338 0.7520 0.6583
vn 0.0339 0.7537 0.6564
vn -0.0338 0.7520 -0.6583
vn 0.0339 0.7537 -0.6564
vn -0.0007 0.7752 0.6317
vn 0.0007 -0.6390 0.7692
vn -0.6612 -0.0002 0.7502
vn 0.6612 -0.0002 0.7502
vn 0.0000 -0.7433 0.6690
vn 0.0592 0.6522 0.7557
vn 0.6412 -0.0011 0.7674
vn -0.6613 -0.0002 0.7501
vn -0.0007 0.7752 -0.6317
vn 0.0007 -0.6390 -0.7692
vn -0.6612 -0.0002 -0.7502
vn 0.6612 -0.0002 -0.7502
vn -0.0000 -0.7433 -0.6690
vn 0.0592 0.6522 -0.7557
vn 0.6412 -0.0011 -0.7674
vn -0.6613 -0.0002 -0.7501
vn -0.7071 -0.7071 0.0000
vn 0.7071 -0.7071 0.0000
vn -0.7381 0.6747 0.0000
vn 0.7381 0.6747 0.0000
vn -0.0007 -0.6390 0.7692
vn -0.0571 0.6217 0.7812
vn -0.0003 0.6719 0.7406
vn -0.0007 -0.6390 -0.7692
vn -0.0571 0.6217 -0.7811
vn -0.0003 0.6719 -0.7406
vn -0.0449 0.9990 0.0000
vn 0.0449 0.9990 0.0000
vn 0.0007 0.7752 0.6317
vn 0.0008 -0.7745 0.6325
vn 0.0007 0.7752 -0.6317
vn 0.0008 -0.7745 -0.6325
vn -0.7071 0.0000 0.7071
vn 0.7071 0.0000 0.7071
vn -0.7071 0.0000 -0.7071
vn 0.7071 0.0000 -0.7071
usemtl Wood
s off
f 11/1/1 8/2/1 27/3/1 32/4/1
f 45/5/2 11/6/2 32/7/2 56/8/2
f 67/9/3 6/10/3 25/11/3 76/12/3
f 65/13/4 7/14/4 15/15/4 70/16/4
f 63/17/5 44/18/5 29/19/5 58/20/5
f 41/21/5 61/22/5 55/23/5 31/24/5
f 37/25/5 80/26/5 75/27/5 26/28/5
f 77/29/5 34/30/5 28/31/5 74/32/5
f 21/33/6 49/34/6 59/35/6 40/36/6
f 7/14/4 12/37/4 20/38/4 15/15/4
f 44/18/5 37/25/5 26/28/5 29/19/5
f 8/39/3 66/40/3 73/41/3 27/42/3
f 10/43/4 5/44/4 18/45/4 23/46/4
f 16/47/2 72/48/2 79/49/2 36/50/2
f 69/51/2 14/52/2 35/53/2 78/54/2
f 12/37/4 46/55/4 50/56/4 20/38/4
f 13/57/7 19/58/7 39/59/7 33/60/7
f 56/61/7 73/62/7 66/63/7 45/64/7
f 46/55/4 47/65/4 54/66/4 50/56/4
f 68/67/4 65/13/4 70/16/4 71/68/4
f 52/69/8 22/70/8 42/71/8 62/72/8
f 58/20/5 75/27/5 74/32/5 55/23/5
f 47/65/4 10/43/4 23/46/4 54/66/4
f 6/73/7 9/74/7 30/75/7 25/76/7
f 72/48/2 69/51/2 78/54/2 79/49/2
f 34/30/5 41/21/5 31/24/5 28/31/5
f 9/77/2 48/78/2 57/79/2 30/80/2
f 24/81/1 17/82/1 38/83/1 43/84/1
f 80/26/5 77/29/5 74/32/5 75/27/5
f 48/85/1 67/86/1 76/87/1 57/88/1
f 46/55/4 65/13/4 68/67/4 47/65/4
f 61/22/5 63/17/5 58/20/5 55/23/5
f 51/89/4 53/90/4 64/91/4 60/92/4
f 13/57/9 14/93/9 15/94/9
f 16/47/10 17/95/10 18/96/10
f 19/58/11 20/97/11 21/98/11
f 22/70/12 23/99/12 24/100/12
f 33/60/13 34/101/13 35/102/13
f 36/50/14 37/103/14 38/104/14
f 39/59/15 40/105/15 41/106/15
f 42/71/16 43/107/16 44/108/16
f 49/34/17 50/109/17 51/110/17
f 52/69/18 53/111/18 54/112/18
f 59/35/19 60/113/19 61/114/19
f 62/72/20 63/115/20 64/116/20
f 68/67/21 5/44/21 6/117/21 67/118/21
f 48/78/22 9/77/22 10/119/22 47/120/22
f 5/44/23 10/43/23 9/121/23 6/117/23
f 8/2/24 11/1/24 12/122/24 7/123/24
f 72/48/25 16/47/25 18/96/25 71/124/25
f 54/66/26 23/46/26 22/125/26 52/126/26
f 17/82/27 24/81/27 23/127/27 18/128/27
f 15/15/28 20/38/28 19/129/28 13/130/28
f 76/12/29 25/11/29 26/131/29 75/132/29
f 58/20/30 29/19/30 30/133/30 57/134/30
f 25/76/31 30/75/31 29/135/31 26/136/31
f 28/31/32 31/24/32 32/137/32 27/138/32
f 80/26/33 37/25/33 36/139/33 79/140/33
f 62/72/34 42/71/34 44/108/34 63/115/34
f 37/25/35 44/18/35 43/141/35 38/142/35
f 33/60/36 39/59/36 41/106/36 34/101/36
f 13/57/37 33/60/37 35/102/37 14/93/37
f 16/47/38 36/50/38 38/104/38 17/95/38
f 21/33/39 40/36/39 39/143/39 19/144/39
f 24/81/40 43/84/40 42/145/40 22/146/40
f 46/55/41 12/37/41 11/147/41 45/148/41
f 49/34/42 21/33/42 20/149/42 50/109/42
f 53/90/43 51/89/43 50/150/43 54/151/43
f 56/8/44 32/7/44 31/152/44 55/153/44
f 61/22/45 41/21/45 40/154/45 59/155/45
f 63/17/46 61/22/46 60/156/46 64/157/46
f 51/89/47 60/92/47 59/35/47 49/34/47
f 52/69/48 62/72/48 64/91/48 53/90/48
f 66/40/49 8/39/49 7/158/49 65/159/49
f 70/16/50 15/15/50 14/160/50 69/161/50
f 71/68/25 70/16/25 69/161/25 72/162/25
f 74/32/51 28/31/51 27/138/51 73/163/51
f 78/54/52 35/53/52 34/164/52 77/165/52
f 79/49/33 78/54/33 77/165/33 80/166/33
f 45/64/53 66/63/53 65/167/53 46/168/53
f 67/86/54 48/85/54 47/169/54 68/170/54
f 55/23/55 74/32/55 73/163/55 56/171/55
f 57/88/56 76/87/56 75/172/56 58/173/56
f 5/44/4 68/67/4 71/68/4 18/45/4
usemtl Glass
f 4/174/4 2/175/4 1/176/4 3/177/4
